<svg xmlns="http://www.w3.org/2000/svg" viewBox="0 0 640 480" width="640" height="480" role="img" aria-label="ショップイメージ">
  <defs><linearGradient id="gh" x1="0" y1="0" x2="1" y2="1">
    <stop offset="0" stop-color="#fde8e3"/><stop offset=".55" stop-color="#f6d7cf"/><stop offset="1" stop-color="#e8dcef"/>
  </linearGradient></defs>
  <rect width="640" height="480" fill="url(#gh)"/>
  <g opacity=".9">
    <circle cx="120" cy="100" r="60" fill="#fff" opacity=".5"/>
    <circle cx="540" cy="120" r="34" fill="#fff" opacity=".45"/>
    <circle cx="560" cy="380" r="80" fill="#fff" opacity=".4"/>
  </g>
  <!-- laptop / shop window -->
  <g transform="translate(320 250)">
    <rect x="-150" y="-110" width="300" height="200" rx="16" fill="#fff" stroke="#e7c8c1" stroke-width="3"/>
    <rect x="-132" y="-92" width="264" height="150" rx="8" fill="#fbf6f1"/>
    <g>
      <rect x="-112" y="-72" width="70" height="56" rx="8" fill="#f4a8a0"/>
      <rect x="-30" y="-72" width="70" height="56" rx="8" fill="#a7c4a0"/>
      <rect x="52" y="-72" width="70" height="56" rx="8" fill="#9ec1d6"/>
      <rect x="-112" y="-4" width="70" height="48" rx="8" fill="#e7c66b"/>
      <rect x="-30" y="-4" width="70" height="48" rx="8" fill="#c6a8d6"/>
      <rect x="52" y="-4" width="70" height="48" rx="8" fill="#f1b8ac"/>
    </g>
    <rect x="-40" y="96" width="80" height="14" rx="7" fill="#e7c8c1"/>
  </g>
  <path d="M0 470c160-60 480-60 640 0" fill="#fff" opacity=".5"/>
</svg>
